<svg width="49" height="48" viewBox="0 0 49 48" fill="none" xmlns="http://www.w3.org/2000/svg">
    <path d="M24.5 0C11.245 0 0.5 10.745 0.5 24C0.5 37.255 11.245 48 24.5 48C37.755 48 48.5 37.255 48.5 24C48.5 10.745 37.755 0 24.5 0ZM33.73 27.0775C33.73 27.0775 35.8525 29.1725 36.375 30.145C36.39 30.165 36.3975 30.185 36.4025 30.195C36.615 30.5525 36.665 30.83 36.56 31.0375C36.385 31.3825 35.785 31.5525 35.58 31.5675H31.83C31.57 31.5675 31.025 31.5 30.365 31.045C29.8575 30.69 29.3575 30.1075 28.87 29.54C28.1425 28.695 27.5125 27.965 26.8775 27.965C26.7968 27.9649 26.7167 27.9775 26.64 28.0025C26.16 28.1575 25.545 28.8425 25.545 30.6675C25.545 31.2375 25.095 31.565 24.7775 31.565H23.06C22.475 31.565 19.4275 31.36 16.7275 28.5125C13.4225 25.025 10.4475 18.03 10.4225 17.965C10.235 17.5125 10.6225 17.27 11.045 17.27H14.8325C15.3375 17.27 15.5025 17.5775 15.6175 17.85C15.7525 18.1675 16.2475 19.43 17.06 20.85C18.3775 23.165 19.185 24.105 19.8325 24.105C19.9539 24.1036 20.0732 24.0727 20.18 24.015C21.025 23.545 20.8675 20.5325 20.83 19.9075C20.83 19.79 20.8275 18.56 20.395 17.97C20.085 17.5425 19.5575 17.38 19.2375 17.32C19.367 17.1413 19.5377 16.9964 19.735 16.8975C20.315 16.6075 21.36 16.565 22.3975 16.565H22.975C24.1 16.58 24.39 16.6525 24.7975 16.755C25.6225 16.9525 25.64 17.485 25.5675 19.3075C25.545 19.825 25.5225 20.41 25.5225 21.1C25.5225 21.25 25.515 21.41 25.515 21.58C25.49 22.5075 25.46 23.56 26.115 23.9925C26.2004 24.0461 26.2992 24.0746 26.4 24.075C26.6275 24.075 27.3125 24.075 29.1675 20.8925C29.7396 19.8681 30.2367 18.8037 30.655 17.7075C30.6925 17.6425 30.8025 17.4425 30.9325 17.365C31.0284 17.3161 31.1348 17.2912 31.2425 17.2925H35.695C36.18 17.2925 36.5125 17.365 36.575 17.5525C36.685 17.85 36.555 18.7575 34.5225 21.51L33.615 22.7075C31.7725 25.1225 31.7725 25.245 33.73 27.0775Z" fill="#04B6F5"/>
</svg>